# xmcd
#
# Track frame offsets:
#       150
#       15395
#       28242
#       43450
#       56870
#       70855
#       83015
#       98762
#       110157
#       120957
#       133592
#       144750
#       158565
#       171525
#       183230
#
# Disc length: 2636 seconds
#
# Revision: 0
# Processed by: cddbd v1.4PL0 Copyright (c) Steve Scherf et al.
# Submitted via: WhereIsIt 3.26
#
DISCID=c90a4a0f
DTITLE=Billie Jo Spears - What I've got in mind, the best of
DYEAR=1900
DGENRE=
TTITLE0=blanket on the ground
TTITLE1=what I've got in mind
TTITLE2=something for your memory to do
TTITLE3=come back when you can stay forever
TTITLE4=I will survive
TTITLE5=I'm gonna love lovin' you
TTITLE6=couldn't have picked a better place to die
TTITLE7=outlaw woman
TTITLE8=misty blue
TTITLE9='57 chevrolet
TTITLE10=wisdom of a fool
TTITLE11=why must all the good times be mem'ries
TTITLE12=blue orleans
TTITLE13=It's not easy
TTITLE14=I don't want to talk about it
EXTD=
EXTT0=
EXTT1=
EXTT2=
EXTT3=
EXTT4=
EXTT5=
EXTT6=
EXTT7=
EXTT8=
EXTT9=
EXTT10=
EXTT11=
EXTT12=
EXTT13=
EXTT14=
PLAYORDER=
